# xmcd CD database file
#
# Track frame offsets:
#	150
#	11914
#	31765
#	44584
#	57478
#	70151
#	85319
#	95804
#	112070
#	125933
#	138779
#	163146
#	174262
#
# Disc length: 2330 seconds
#
# Revision: 0
# Processed by: cddbd v1.5.2PL0 Copyright (c) Steve Scherf et al.
# Submitted via: CDex 1.99.1
#
DISCID=bc09180d
DTITLE=King Sonic - Character Flaws
DYEAR=2008
DGENRE=Blues
TTITLE0=You're Gonna Miss Me
TTITLE1=The Leaving
TTITLE2=Have Mercy Pretty Baby
TTITLE3=Everybody's Tryin' to be My Baby
TTITLE4=Carryin' On
TTITLE5=Singing Songs About You
TTITLE6=Whiskey Will
TTITLE7=Oh, Regina
TTITLE8=Got My Mojo Workin'
TTITLE9=I Ain't Drunk
TTITLE10=Let's Jump Tonight
TTITLE11=Right Around the Corner
TTITLE12=Record
EXTD=YEAR: 2008
EXTT0=
EXTT1=
EXTT2=
EXTT3=
EXTT4=
EXTT5=
EXTT6=
EXTT7=
EXTT8=
EXTT9=
EXTT10=
EXTT11=
EXTT12=
PLAYORDER=
